# xmcd
#
# Track frame offsets: 
#        180
#        13524
#        28262
#        43099
#
# Disc length: 746 seconds
#
# Revision: 0
# Processed by: cddbd v1.5.2PL0 Copyright (c) Steve Scherf et al.
# Submitted via: ExactAudioCopyFreeDBPlugin 1.0
#
DISCID=2b02e804
DTITLE=Tex Haper - Mein Dank an Schleswig-Holstein
DYEAR=1990
DGENRE=Country
TTITLE0=Hoch oben im Norden
TTITLE1=Mein Kiel
TTITLE2=Zuhause ist es doch am schönsten
TTITLE3=Holsteinlied
EXTD=
EXTT0=
EXTT1=
EXTT2=
EXTT3=
PLAYORDER=
